<svg height="512" viewBox="0 0 512 512" width="512" xmlns="http://www.w3.org/2000/svg"><g><g><path d="m16 304h480v32h-480z" fill="#a0815c"/><path d="m32 48h448v256h-448z" fill="#ffeb99"/><g fill="#5f4d37"><path d="m216 16h80v32h-80z"/><path d="m431 496h-48l-32-160h48z"/><path d="m79 496h48l32-160h-48z"/></g><path d="m136.6 448h239.8l.2-24h-241.2z" fill="#a0815c"/></g><path d="m496 296h-8v-248a8 8 0 0 0 -8-8h-176v-24a8 8 0 0 0 -8-8h-80a8 8 0 0 0 -8 8v24h-176a8 8 0 0 0 -8 8v248h-8a8 8 0 0 0 -8 8v32a8 8 0 0 0 8 8h85.24l-30.08 150.43a7.992 7.992 0 0 0 7.84 9.57h48a7.99 7.99 0 0 0 7.84-6.43l8.32-41.57h223.68l8.32 41.57a7.99 7.99 0 0 0 7.84 6.43h48a7.992 7.992 0 0 0 7.84-9.57l-30.08-150.43h87.24a8 8 0 0 0 8-8v-32a8 8 0 0 0 -8-8zm-272-272h64v16h-64zm-184 32h432v240h-432zm93.57 366.37c-.01.01-.01.02-.01.04l-4.79 23.95c0 .02-.01.04-.01.06l-8.32 41.58h-31.68l28.8-144h31.68zm12.79 17.63 1.6-8h214.08l1.6 8zm4.8-24 14.4-72h178.88l14.4 72zm270.08 72h-31.68l-8.32-41.58c0-.02-.01-.04-.01-.06l-4.79-23.95c0-.02 0-.03-.01-.04l-15.67-78.37h31.68zm66.76-160h-464v-16h464z"/></g></svg>