<?xml version="1.0" encoding="iso-8859-1"?>
<!-- Generator: Adobe Illustrator 19.0.0, SVG Export Plug-In . SVG Version: 6.00 Build 0)  -->
<svg version="1.1" id="Capa_1" xmlns="http://www.w3.org/2000/svg" xmlns:xlink="http://www.w3.org/1999/xlink" x="0px" y="0px"
	 viewBox="0 0 512 512" style="enable-background:new 0 0 512 512;" xml:space="preserve">
<path style="fill:#FFA5C8;" d="M512,256c0,140.487-113.677,256-256,256C114.047,512,0,396.835,0,256C0,114.615,114.615,0,256,0
	C397.649,0,512,114.857,512,256z"/>
<path style="fill:#FFC396;" d="M141.881,167.196l-8.635,133.086c-3.179,0.259-6.391,0.408-9.631,0.44
	c-24.514,0.249-47.513-6.062-67.363-17.278L69.14,200.99l6.157-37.623h0.012l22.212,1.279L141.881,167.196z"/>
<path style="fill:#FFD7AA;" d="M219.12,166.451c-13.092,0.133-12.114,3.387-12.057,8.941c0.168,16.537-35.163,1.856-34.974,20.413
	c9.024,17.613,21.846,12.188,20.027,20.417l-9.738,19.99v0.032c-2.03,3.751-5.69,6.474-8.044,7.052
	c-0.844,0.279-7.717,1.041-20.747-2.549c-38.76-11.446-79.461-42.992-91.899-55.143c0.005-0.005,0-0.011-0.005-0.011
	c-3.697-3.697-7.105-7.554-10.427-11.93c0-0.005,0-0.005-0.012-0.011c-1.603-2.112-3.12-4.278-4.552-6.492
	c-0.006-0.647-22.15-29.576-14.125-68.396c5.565-35.966,37.412-66.92,84.115-66.994c0.725-0.002,1.45,0.006,2.163,0.015
	c45.654,0.655,82.262,35.366,83.621,78.315c0.489,15.441-0.822,10.051,23.456,48.17C228.065,162.097,224.48,166.397,219.12,166.451z
	"/>
<path style="fill:#FFC396;" d="M182.379,236.243c-2.03,3.751-5.69,6.474-8.044,7.052c-0.844,0.279-7.717,1.041-20.747-2.549
	c-35.494-9.774-78.362-41.918-91.899-55.143c0.005-0.005,0-0.011-0.005-0.011c-4.021-4.021-7.355-7.883-10.427-11.93
	c0-0.005,0-0.005-0.012-0.011c-1.593-2.113-3.113-4.278-4.552-6.492c-0.003-0.267-5.895-7.985-10.942-22.357
	C73.179,187.892,124.184,220.259,182.379,236.243z"/>
<path style="fill:#965028;" d="M211.738,98.105c-20.779,0.06-61.794-2.567-79.922-2.383c-9.436,0.096-9.197,46.68-8.765,56.106
	c5.702,64.183,5.943,133.804-76.533,76.649c-27.29-18.911-24.68-73.316-24.68-109.32c0-51.226,41.462-101.916,94.25-101.916
	c40.908,0,96.885,8.861,101.08,73.045C218.526,94.085,215.772,98.093,211.738,98.105z"/>
<path style="fill:#FF5A5F;" d="M203.776,506.68c-80.68-16.699-147.222-71.314-180.577-144.114l23.42-97.453
	c1.127-4.73,5.594-7.891,10.441-7.396l80.933,8.291c4.541,0.474,8.154,4.035,8.66,8.576l4.067,35.873l20.354,23.61
	c9.25,10.725,15.297,23.842,17.447,37.833L203.776,506.68z"/>
<path style="fill:#CDF5FF;" d="M283.67,457.569H113.454c-2.423,0-4.388-1.965-4.388-4.388V339.148c0-2.596,2.105-4.701,4.701-4.701
	h156.801c1.526,0,3.047-0.185,4.528-0.551l44.792-11.07c1.886-0.466,3.092,1.95,1.587,3.177l-26.47,21.589
	c-4.394,3.584-6.945,8.955-6.945,14.626v90.961C288.058,455.604,286.093,457.569,283.67,457.569z"/>
<path style="fill:#B4EBFF;" d="M288.063,417.694v35.481c0,2.428-1.969,4.397-4.397,4.397H113.459c-2.428,0-4.397-1.969-4.397-4.397
	v-78.658c6.088,6.536,12.612,12.165,19.522,17.009c5.871,4.132,12.033,7.695,18.447,10.752
	c31.132,14.883,68.22,18.134,108.039,18.134C266.306,420.413,277.324,419.482,288.063,417.694z"/>
<g>
	<circle style="fill:#4BB9E1;" cx="252.892" cy="393.94" r="11.217"/>
	<circle style="fill:#4BB9E1;" cx="196.212" cy="393.94" r="11.217"/>
	<path style="fill:#4BB9E1;" d="M150.751,393.94c0,3.308-1.433,6.29-3.719,8.344c-1.991,1.791-4.615,2.876-7.501,2.876
		c-6.195,0-11.21-5.025-11.21-11.22c0-0.832,0.084-1.633,0.263-2.413c1.096-5.036,5.584-8.808,10.946-8.808
		C145.726,382.721,150.751,387.745,150.751,393.94z"/>
</g>
<path style="fill:#CDF5FF;" d="M295.149,27.232h163.181c2.323,0,4.207,1.884,4.207,4.207v109.319c0,2.488-2.018,4.506-4.506,4.506
	H307.001c-0.991,0-1.98,0.12-2.943,0.358l-40.544,10.019c-2.546,0.629-4.176-2.634-2.144-4.292l25.058-20.438
	c2.855-2.329,4.512-5.819,4.512-9.503V31.439C290.942,29.116,292.825,27.232,295.149,27.232z"/>
<g>
	<circle style="fill:#4BB9E1;" cx="324.659" cy="88.234" r="10.753"/>
	<circle style="fill:#4BB9E1;" cx="378.99" cy="88.234" r="10.753"/>
	<circle style="fill:#4BB9E1;" cx="433.332" cy="88.234" r="10.753"/>
</g>
<path style="fill:#B4EBFF;" d="M462.536,122.898v17.859c0,2.488-2.018,4.505-4.505,4.505H306.997c-0.991,0-1.98,0.12-2.943,0.358
	l-40.537,10.02c-2.546,0.63-4.177-2.634-2.144-4.292l25.061-20.439c2.855-2.329,4.512-5.819,4.512-9.504v-60.85
	c7.135,8.211,15.242,15.808,24.182,22.676c5.583,4.285,11.489,8.304,17.685,11.999c30.297,18.079,67.532,28.733,107.777,28.733
	C448.013,123.963,455.332,123.605,462.536,122.898z"/>
<path style="fill:#46A5CD;" d="M332.813,95.23c-1.969,2.305-4.887,3.753-8.153,3.753c-5.941,0-10.759-4.806-10.759-10.747
	c0-1.807,0.44-3.509,1.227-5.003C320.71,87.517,326.616,91.535,332.813,95.23z"/>
<path style="fill:#FFD7AA;" d="M477.381,384.596c-14.402,24.758-32.849,46.914-54.458,65.52c-1.823,0.084-3.666,0.116-5.51,0.116
	c-3.277,0-6.521-0.105-9.735-0.337l-10.093-134.379l44.786-3.013l22.44-1.538h0.011l6.606,37.959L477.381,384.596z"/>
<path style="fill:#FFC396;" d="M431.183,442.688c-2.697,2.539-5.447,5.015-8.26,7.427c-1.823,0.084-3.666,0.116-5.51,0.116
	c-3.277,0-6.521-0.105-9.735-0.337l-10.093-134.379l23.915-1.612L431.183,442.688z"/>
<path style="fill:#FFD7AA;" d="M323.091,280.603c11.994,0.779,10.461,10.981,10.11,16.387c-1.045,16.097,32.13,3.55,30.957,21.614
	c-9.221,16.706-20.681,10.788-19.457,18.891l7.849,19.951l-0.002,0.031c1.658,3.754,4.866,6.587,6.992,7.267
	c0.759,0.314,7.018,1.397,19.154-1.454c36.144-9.225,75.15-37.931,87.206-49.15c-0.005-0.005,0.001-0.011,0.005-0.009
	c3.587-3.417,6.92-7.005,10.199-11.102c0-0.005,0-0.005,0.011-0.009c1.583-1.979,3.089-4.013,4.522-6.097
	c0.041-0.629,21.896-27.706,16.632-65.911c-3.163-35.303-30.687-67.028-73.491-69.415c-0.664-0.038-1.328-0.066-1.984-0.093
	c-41.881-1.625-76.846,23.283-80.406,65.045c-1.28,15.014,0.212,9.828-24.096,45.751
	C315.127,275.919,318.181,280.285,323.091,280.603z"/>
<path style="fill:#FFC396;" d="M352.548,357.477c1.658,3.754,4.866,6.587,6.992,7.267c0.759,0.314,7.018,1.397,19.154-1.454
	c33.06-7.759,74.086-36.94,87.206-49.15c-0.005-0.005,0.001-0.011,0.005-0.009c3.902-3.717,7.166-7.313,10.199-11.102
	c0-0.005,0-0.005,0.011-0.009c1.574-1.979,3.085-4.013,4.522-6.097c0.017-0.259,5.832-7.484,11.234-21.231
	C455.245,315.8,406.75,344.795,352.548,357.477z"/>
<path style="fill:#AA6432;" d="M464.862,317.105c-10.635-4.815,1.831-16.999-15.96-30.816c-1.745-1.355-2.503-3.631-1.893-5.754
	c4.823-16.779,6.084-29.423-3.48-36.975c-10.161-8.025-19.164,12.671-22.303,14.041c-3.483,1.519-7.393-0.723-7.652-4.513
	c-0.359-5.236-0.374-37.703-0.022-43.136c1.421-21.888,12.816-31.186,23.783-46.754c39.914,7.542,65.179,39.577,68.337,74.865
	c2.806,20.342-1.952,66.38-29.433,78.891C472.635,318.593,468.47,318.738,464.862,317.105z"/>
<path style="fill:#965028;" d="M507.23,234.748c-0.298,3.272-3.467,5.49-6.644,4.649l-119.771-31.686
	c-30.268-9.146-47.391-41.098-38.246-71.366l3.222-10.662c0.848-2.806,3.81-4.393,6.616-3.545l124.05,37.483
	c21.523,6.504,35.542,22.368,32.911,51.645L507.23,234.748z"/>
<path style="fill:#FA7C33;" d="M484.45,371.585c-26.655,52.603-70.956,94.903-125.35,118.85l5.605-33.524
	c1.665-9.935,4.762-19.585,9.197-28.625L389.8,395.89c2.17-4.404,5.952-7.807,10.556-9.503l73.537-26.992
	c3.73-1.37,7.817,0.822,8.744,4.678L484.45,371.585z"/>
<path style="fill:#46A5CD;" d="M147.032,402.284c-1.991,1.791-4.615,2.876-7.501,2.876c-6.195,0-11.21-5.025-11.21-11.22
	c0-0.832,0.084-1.633,0.263-2.413C134.453,395.657,140.616,399.218,147.032,402.284z"/>
<g>
	<path style="fill:#80391B;" d="M75.349,236.288c8.039,5.573,15.318,9.988,21.914,13.338c-11.768,0.653-28.161-5.489-50.749-21.145
		C19.227,209.57,21.84,155.166,21.84,119.156c0-51.223,41.457-101.909,94.25-101.909c6.321,0,13.001,0.211,19.796,0.801
		c-49.095,6.764-86.127,55.585-86.127,104.88C49.759,160.265,47.051,216.682,75.349,236.288z"/>
	<path style="fill:#80391B;" d="M508.27,223.299l-1.043,11.452c-0.295,3.266-3.466,5.489-6.637,4.646l-119.777-31.691
		c-30.268-9.145-47.388-41.088-38.244-71.356l3.224-10.662c0.843-2.813,3.803-4.393,6.616-3.55l6.247,1.886
		c-8.186,29.826,8.881,60.916,38.665,69.913L508.27,223.299z"/>
</g>
<path style="fill:#FF4046;" d="M148.591,291.662l-72.01-7.385c-6.374-0.653-12.242,3.508-13.728,9.724l-23.61,98.243
	c-5.974-9.492-11.336-19.406-16.045-29.678l23.42-97.453c1.127-4.73,5.594-7.891,10.441-7.396l80.933,8.291
	c4.541,0.474,8.154,4.035,8.66,8.576L148.591,291.662z"/>
<path style="fill:#D76E19;" d="M484.45,371.585c-1.18,2.339-2.402,4.657-3.666,6.953l-64.572,23.705
	c-4.604,1.696-8.386,5.099-10.556,9.503l-15.898,32.396c-4.435,9.039-7.533,18.69-9.197,28.625l-1.285,7.701
	c-6.553,3.603-13.285,6.932-20.175,9.966l5.605-33.524c1.665-9.935,4.762-19.585,9.197-28.625L389.8,395.89
	c2.17-4.404,5.952-7.807,10.556-9.503l73.537-26.992c3.73-1.37,7.817,0.822,8.744,4.678L484.45,371.585z"/>
<g>
	<circle style="fill:#BA6746;" cx="182.379" cy="128.132" r="7.776"/>
	<circle style="fill:#BA6746;" cx="368.234" cy="237.542" r="7.776"/>
</g>
<g>
</g>
<g>
</g>
<g>
</g>
<g>
</g>
<g>
</g>
<g>
</g>
<g>
</g>
<g>
</g>
<g>
</g>
<g>
</g>
<g>
</g>
<g>
</g>
<g>
</g>
<g>
</g>
<g>
</g>
</svg>
