<svg id="Layer_1" height="512" viewBox="0 0 512 512" width="512" xmlns="http://www.w3.org/2000/svg" data-name="Layer 1"><path d="m353.167 121.16-111.338-109.966-155.71.548a43.785 43.785 0 0 0 -43.569 43.984l1.56 322.492a43.772 43.772 0 0 0 43.98 43.571l155.42-.88 110.49-135.909z" fill="#a5e2fb"/><g fill="#4ca987"><circle cx="111.64" cy="162.9" r="35.02"/><path d="m111.64 218.65a35.015 35.015 0 1 1 -35.02 35.01 35.013 35.013 0 0 1 35.02-35.01z"/><path d="m111.64 309.41a35.015 35.015 0 1 1 -35.02 35.01 35.019 35.019 0 0 1 35.02-35.01z"/></g><path d="m353.18 121.06v.23l-67.05.32a43.775 43.775 0 0 1 -43.98-43.56l-.32-66.84.23.02z" fill="#8ebfce"/><path d="m74.11 378.218-1.56-322.363a43.6 43.6 0 0 1 43.569-43.855h-30a43.6 43.6 0 0 0 -43.569 43.855l1.56 322.427a43.744 43.744 0 0 0 43.98 43.539l26.315-.165a43.779 43.779 0 0 1 -40.295-43.438z" fill="#89bece"/><path d="m72.157 59.24a6 6 0 0 1 -6-6v-3.74a6 6 0 0 1 12 0v3.74a6 6 0 0 1 -6 6z" fill="#f4f8fc"/><path d="m72.157 131.551a6 6 0 0 1 -6-6v-50.6a6 6 0 0 1 12 0v50.6a6 6 0 0 1 -6 6z" fill="#f4f8fc"/><path d="m303.248 247.561h-121.016a6 6 0 0 1 0-12h121.016a6 6 0 0 1 0 12z" fill="#89bece"/><path d="m107.6 268.133a5.987 5.987 0 0 1 -4.244-1.757l-9.636-9.636a6 6 0 0 1 8.485-8.486l5.488 5.488 13.478-12.887a6 6 0 1 1 8.293 8.674l-17.719 16.941a5.985 5.985 0 0 1 -4.145 1.663z" fill="#f3ce7d"/><path d="m262.909 267.729h-80.677a6 6 0 0 1 0-12h80.677a6 6 0 1 1 0 12z" fill="#89bece"/><path d="m240.818 338.322h-58.586a6 6 0 1 1 0-12h58.586a6 6 0 0 1 0 12z" fill="#89bece"/><path d="m107.6 358.9a5.983 5.983 0 0 1 -4.243-1.757l-9.638-9.643a6 6 0 0 1 8.485-8.485l5.488 5.487 13.478-12.887a6 6 0 1 1 8.293 8.674l-17.718 16.941a5.985 5.985 0 0 1 -4.145 1.67z" fill="#f3ce7d"/><path d="m233.465 358.492h-51.233a6 6 0 0 1 0-12h51.233a6 6 0 0 1 0 12z" fill="#89bece"/><path d="m303.248 156.8h-121.016a6 6 0 1 1 0-12h121.016a6 6 0 0 1 0 12z" fill="#89bece"/><path d="m107.6 177.371a5.983 5.983 0 0 1 -4.243-1.757l-9.637-9.636a6 6 0 0 1 8.485-8.485l5.488 5.487 13.478-12.887a6 6 0 1 1 8.293 8.674l-17.718 16.941a5.985 5.985 0 0 1 -4.146 1.663z" fill="#f3ce7d"/><path d="m262.909 176.968h-80.677a6 6 0 0 1 0-12h80.677a6 6 0 0 1 0 12z" fill="#89bece"/><path d="m454.97 398.21a106.984 106.984 0 0 0 -.85-32.93l13.91-13.35-13.91-31.8-19.31 1.42a95.713 95.713 0 0 0 -23.85-22.71l.57-19.31-32.37-12.5-12.5 14.49a104.357 104.357 0 0 0 -12.61-.88 106.008 106.008 0 0 0 -20.33 1.73l-13.34-13.92-31.8 13.92 1.42 19.31a95.412 95.412 0 0 0 -22.72 23.85l-19.31-.57-12.49 32.37 14.48 12.49a107.048 107.048 0 0 0 .85 32.94l-13.91 13.34 13.92 31.8 19.3-1.42a95.753 95.753 0 0 0 23.85 22.72l-.56 19.31 32.37 12.49 12.49-14.48a106.738 106.738 0 0 0 32.94-.85l13.34 13.91 31.8-13.91-1.42-19.31a95.713 95.713 0 0 0 22.71-23.85l19.31.57 12.5-32.37z" fill="#6d6d93"/><path d="m409.2 326.92a78.909 78.909 0 1 0 -90.18 126.83l.05-.1 69-.03a78.928 78.928 0 0 0 21.13-126.7z" fill="#54546b"/><path d="m388.07 428.94v24.68a79.078 79.078 0 0 1 -69.05.13l.05-.1v-24.71a22.538 22.538 0 0 1 22.54-22.54h23.92a22.538 22.538 0 0 1 22.54 22.54z" fill="#6994fe"/><path d="m378.66 342.79v27.98a25.09 25.09 0 0 1 -50.18 0v-11.12h7.63a11.57 11.57 0 0 0 11.57-11.57 5.292 5.292 0 0 1 5.3-5.29z" fill="#ffd8b7"/><path d="m378.76 334.235a15.062 15.062 0 0 0 -10.66-4.473 22.079 22.079 0 0 1 -6.35-.976 32.813 32.813 0 0 0 -8.18-1.643 25.572 25.572 0 0 0 -17.98 7.344 25.2 25.2 0 0 0 -7.59 17.733v9.78h8.11a11.721 11.721 0 0 0 11.57-11.745 5.262 5.262 0 0 1 5.3-5.255h30.2a15.571 15.571 0 0 0 -4.42-10.765z" fill="#93453b"/><path d="m370.982 432.979h-4.867a6 6 0 0 1 0-12h4.867a6 6 0 0 1 0 12z" fill="#5379c4"/></svg>