<svg height="512pt" viewBox="0 0 512 512" width="512pt" xmlns="http://www.w3.org/2000/svg"><path d="m422 90c-24.902344 0-45 20.097656-45 45s20.097656 45 45 45 45-20.097656 45-45-20.097656-45-45-45zm0 0" fill="#38d3f8"/><path d="m482 240v150h-30v107h-60v-107h-30v-150c0-33 27-60 60-60s60 27 60 60zm0 0" fill="#25d9f8"/><path d="m422 180v-90c24.902344 0 45 20.097656 45 45s-20.097656 45-45 45zm0 0" fill="#00c0f1"/><path d="m482 240v150h-30v107h-30v-317c33 0 60 27 60 60zm0 0" fill="#00c0f1"/><path d="m60 390h90v107h-90zm0 0" fill="#7fe881"/><path d="m105 390h45v107h-45zm0 0" fill="#5bc980"/><path d="m210 330h92v167h-92zm0 0" fill="#fdbf00"/><path d="m256 330h46v167h-46zm0 0" fill="#ff9100"/><path d="m512 482v30h-512v-512h30v482zm0 0" fill="#537983"/><path d="m256 482h256v30h-256zm0 0" fill="#3e5959"/></svg>