<svg height="464pt" viewBox="0 -48 464 464" width="464pt" xmlns="http://www.w3.org/2000/svg"><path d="m432 368h-400c-17.671875 0-32-14.328125-32-32v-272c0-17.671875 14.328125-32 32-32h400c17.671875 0 32 14.328125 32 32v272c0 17.671875-14.328125 32-32 32zm0 0" fill="#cfdfe8"/><path d="m32 32h400c17.671875 0 32 14.328125 32 32v40h-464v-40c0-17.671875 14.328125-32 32-32zm0 0" fill="#dd3e46"/><path d="m232 152h200v48h-200zm0 0" fill="#7d8d9c"/><g fill="#fff"><path d="m160 176c0 22.089844-17.910156 40-40 40s-40-17.910156-40-40 17.910156-40 40-40 40 17.910156 40 40zm0 0"/><path d="m93.710938 248h52.570312c20.828125-.003906 37.71875 16.882812 37.71875 37.710938v50.289062h-128v-50.289062c0-20.828126 16.882812-37.710938 37.710938-37.710938zm0 0"/><path d="m432 240h-200c-4.417969 0-8-3.582031-8-8s3.582031-8 8-8h200c4.417969 0 8 3.582031 8 8s-3.582031 8-8 8zm0 0"/><path d="m384 272h-152c-4.417969 0-8-3.582031-8-8s3.582031-8 8-8h152c4.417969 0 8 3.582031 8 8s-3.582031 8-8 8zm0 0"/><path d="m272 304h-40c-4.417969 0-8-3.582031-8-8s3.582031-8 8-8h40c4.417969 0 8 3.582031 8 8s-3.582031 8-8 8zm0 0"/><path d="m432 304h-128c-4.417969 0-8-3.582031-8-8s3.582031-8 8-8h128c4.417969 0 8 3.582031 8 8s-3.582031 8-8 8zm0 0"/></g><path d="m312 64h-160l48-64h64zm0 0" fill="#5a6470"/><path d="m432 80h-64c-4.417969 0-8-3.582031-8-8s3.582031-8 8-8h64c4.417969 0 8 3.582031 8 8s-3.582031 8-8 8zm0 0" fill="#ffd782"/></svg>