<svg id="Capa_1" enable-background="new 0 0 510 510" height="512" viewBox="0 0 510 510" width="512" xmlns="http://www.w3.org/2000/svg"><g id="XMLID_300_"><path id="XMLID_1680_" d="m0 133.062v345h255l10-112.357-10-142.644-55.16-47.362-41.029-42.637z" fill="#e7f2ff"/><path id="XMLID_1678_" d="m510 133.062h-155.932l-31.568 46.938-67.5 43.061v255.001h255z" fill="#d0e8ff"/><path id="XMLID_1676_" d="m360 328.062h90v90h-90z" fill="#f33c54"/><path id="XMLID_1674_" d="m360 268.062h90v30h-90z" fill="#ff9f40"/><path id="XMLID_1671_" d="m122.392 313.062h-4.783c-31.766 0-57.609 25.844-57.609 57.61v17.391l60 10 60-10v-17.391c0-31.766-25.843-57.61-57.608-57.61z" fill="#00bf9f"/><path id="XMLID_1669_" d="m60 388.062h120v30h-120z" fill="#2de6a8"/><circle id="XMLID_1668_" cx="120" cy="298.062" fill="#fcc" r="45"/><path id="XMLID_1660_" d="m240 358.062h15l10-15-10-15h-15z" fill="#8adefd"/><path id="XMLID_1654_" d="m240 418.062h15l10-15-10-15h-15z" fill="#ffbe40"/><path id="XMLID_1019_" d="m255 388.062h75v30h-75z" fill="#ff9f40"/><path id="XMLID_924_" d="m240 298.062h15l10-15-10-15h-15z" fill="#8adefd"/><path id="XMLID_849_" d="m255 328.062h75v30h-75z" fill="#50c5ff"/><path id="XMLID_713_" d="m255 268.062h75v30h-75z" fill="#50c5ff"/><path id="XMLID_366_" d="m333.383 193.062 56.117-161.124h-95.832l-32.996 97.25 8.504 31.874 24.906 32 18.918 8z" fill="#e90b43"/><path id="XMLID_376_" d="m255.333 118.345-44.869-85.783h-97.964l74.287 160.5 35.879 16.334 32.334-16.334 14.109-32.067z" fill="#ff637b"/><path id="XMLID_377_" d="m255 118.345v74.717l19.541 8 19.541-8z" fill="#f33c54"/><path id="XMLID_879_" d="m130.083 193.062v30h124.917l10-13.666-10-16.334z" fill="#4d5e80"/><path id="XMLID_400_" d="m255 193.062h130.083v30h-130.083z" fill="#3d4566"/></g></svg>