<svg id="Capa_1" enable-background="new 0 0 512 512" height="512" viewBox="0 0 512 512" width="512" xmlns="http://www.w3.org/2000/svg"><g><g><g><path d="m511.998 358.343v-290.078c0-18.851-15.282-34.132-34.132-34.132h-443.732c-18.851 0-34.132 15.282-34.132 34.132v290.135l255.998 21.17z" fill="#3c58a0"/><path d="m196.268 402.286h119.466v82.89h-119.466z" fill="#d3dcfb"/><g><g><path d="m273.067 485.589c-4.267 0-7.726-3.459-7.726-7.726v-25.599c0-.445-.362-.807-.807-.807h-17.067c-.445 0-.807.362-.807.807v25.599c0 4.267-3.459 7.726-7.726 7.726s-7.726-3.459-7.726-7.726v-25.599c0-8.966 7.294-16.26 16.26-16.26h17.067c8.965 0 16.26 7.294 16.26 16.26v25.599c-.001 4.267-3.461 7.726-7.728 7.726z" fill="#bec8f7"/></g></g><path d="m34.133 361.223v-275.889c0-9.426 7.641-17.067 17.067-17.067h409.601c9.426 0 17.067 7.641 17.067 17.067v275.839l-221.868 18.397z" fill="#9bd8f9"/><path d="m477.866 34.133h-23.692c18.851 0 34.132 15.281 34.132 34.132v290.077l-244.168 20.247 11.862.981 255.998-21.228v-290.077c0-18.851-15.281-34.132-34.132-34.132z" fill="#2a428c"/><path d="m367.467 477.868h-222.933c-4.418 0-8 3.582-8 8v18.132c0 4.418 3.582 8 8 8h222.933c4.418 0 8-3.582 8-8v-18.132c0-4.418-3.582-8-8-8z" fill="#e9efff"/><path d="m367.226 477.868h-23.694c4.552 0 8.241 3.69 8.241 8.242v17.649c0 4.552-3.69 8.241-8.241 8.241h23.694c4.552 0 8.241-3.69 8.241-8.241v-17.649c0-4.552-3.69-8.242-8.241-8.242z" fill="#d3dcfb"/><path d="m460.801 68.268h-23.694c9.426 0 17.067 7.641 17.067 17.067v277.803l23.694-1.965v-275.839c0-9.426-7.641-17.066-17.067-17.066z" fill="#73c3f9"/></g></g><path d="m85.333 256v-238.933c0-9.426 7.642-17.067 17.067-17.067h307.2c9.426 0 17.067 7.641 17.067 17.067v238.933l-170.667 34.133z" fill="#4fabf7"/><path d="m409.6 0h-23.694c9.426 0 17.067 7.641 17.067 17.067v243.672l23.694-4.739v-238.933c0-9.426-7.641-17.067-17.067-17.067z" fill="#1886ea"/><path d="m242.29 151.851c-2.04-1.559-3.356-4.018-3.356-6.784v-102.4c0-4.713 3.82-8.533 8.533-8.533h136.533c4.713 0 8.533 3.82 8.533 8.533v102.4c0 4.713-3.82 8.533-8.533 8.533h-105.916z" fill="#e9efff"/><circle cx="170.667" cy="119.467" fill="#fcad6d" r="34.133"/><path d="m384 34.133h-23.694c4.713 0 8.533 3.82 8.533 8.533v102.4c0 4.713-3.821 8.533-8.533 8.533h23.694c4.713 0 8.533-3.82 8.533-8.533v-102.4c0-4.712-3.82-8.533-8.533-8.533z" fill="#d3dcfb"/><path d="m257.906 162.425-19.991 1.08-3.632 9.686c-1.93 5.146-8.15 7.153-12.724 4.104l-20.59-13.768-.001-.002h-.002l-.022-.015-.005.015-60.546-.021c-12.69 9.318-20.926 24.345-20.926 41.295v55.321h102.4v-41.599l7.602 5.068c2.837 1.892 6.136 2.867 9.468 2.867 1.758 0 3.526-.272 5.238-.824 4.957-1.599 8.912-5.374 10.742-10.25l15.394-41.05z" fill="#4ce088"/><path d="m140.394 163.515 19.611 15.689c6.233 4.987 15.09 4.987 21.323 0l19.617-15.693.001-.001c-8.48-6.229-18.95-9.909-30.279-9.909-11.329-.001-21.793 3.685-30.273 9.914z" fill="#e9efff"/><path d="m170.667 85.333c-4.166 0-8.156.749-11.847 2.115 13.011 4.816 22.286 17.333 22.286 32.018s-9.275 27.202-22.286 32.018c3.691 1.366 7.681 2.115 11.847 2.115 18.851 0 34.133-15.282 34.133-34.133s-15.282-34.133-34.133-34.133z" fill="#fd995b"/><path d="m257.906 162.425-17.956.97 10.112 1.692-18.898 50.296c-.934 2.489-2.427 4.685-4.32 6.458l2.624 1.75c2.837 1.892 6.136 2.867 9.468 2.867 1.758 0 3.526-.272 5.238-.824 4.957-1.599 8.912-5.374 10.742-10.25l15.394-41.05z" fill="#30c16b"/><path d="m270.528 125.143c-8.821-3.309-18.662 1.161-21.973 9.987l-10.642 28.38 32.396 10.822 10.206-27.217c3.31-8.825-1.162-18.663-9.987-21.972z" fill="#fcad6d"/><path d="m270.528 125.143c-6.365-2.388-13.25-.709-17.84 3.719 4.729 4.582 6.573 11.695 4.114 18.254l-7.566 20.177 21.074 7.04 10.206-27.217c3.309-8.826-1.163-18.664-9.988-21.973z" fill="#fd995b"/><path d="m214.14 197.073c-4.268 0-7.726 3.459-7.726 7.726v55.321h15.453v-41.599-13.721c0-4.267-3.459-7.727-7.727-7.727z" fill="#30c16b"/><g><g><path d="m273.073 144.262c-.621 0-1.251-.076-1.88-.233-4.14-1.035-6.656-5.23-5.622-9.369l17.066-68.267c1.036-4.14 5.229-6.657 9.37-5.622 4.14 1.035 6.656 5.23 5.622 9.369l-17.066 68.267c-.879 3.511-4.029 5.855-7.49 5.855z" fill="#3c58a0"/></g></g><path d="m426.667 361.491h-256l-8.07-52.746 8.07-52.745h256z" fill="#d3dcfb"/><path d="m85.333 256h85.334v105.491h-85.334z" fill="#ff4155"/><path d="m402.972 256h23.694v105.491h-23.694z" fill="#bec8f7"/><g><g><g><path d="m224.958 314.926h-20.158c-4.268 0-7.726-3.459-7.726-7.726s3.459-7.726 7.726-7.726h20.158c4.268 0 7.726 3.459 7.726 7.726s-3.459 7.726-7.726 7.726z" fill="#4ce088"/></g></g><g><g><path d="m392.533 314.926h-139.623c-4.268 0-7.726-3.459-7.726-7.726s3.459-7.726 7.726-7.726h139.624c4.268 0 7.726 3.459 7.726 7.726s-3.459 7.726-7.727 7.726z" fill="#4ce088"/></g></g></g><g><path d="m132.267 314.926h-8.533c-4.268 0-7.726-3.459-7.726-7.726s3.459-7.726 7.726-7.726h8.533c4.268 0 7.726 3.459 7.726 7.726s-3.459 7.726-7.726 7.726z" fill="#e80054"/></g><ellipse cx="238.933" cy="307.2" fill="#e9efff" rx="17.067" ry="17.067" transform="matrix(.228 -.974 .974 .228 -114.666 469.767)"/><path d="m511.998 358.398h-511.996v17.07c0 18.851 15.282 34.132 34.132 34.132h443.732c18.851 0 34.132-15.282 34.132-34.132z" fill="#e9efff"/><path d="m488.306 358.398v17.07c0 18.851-15.282 34.132-34.132 34.132h23.692c18.851 0 34.132-15.282 34.132-34.132v-17.07z" fill="#d3dcfb"/></g></svg>