<svg id="Capa_1" enable-background="new 0 0 512 512" height="512" viewBox="0 0 512 512" width="512" xmlns="http://www.w3.org/2000/svg"><g><path d="m491.935 0h-366.587c-2.845 0-5.151 2.306-5.151 5.151v242.211h28.841c3.363 0 6.374 1.738 8.055 4.65 1.682 2.913 1.682 6.391 0 9.303l-22.826 39.536h12.567c5.129 0 9.302 4.173 9.302 9.302v14.952c0 5.129-4.173 9.302-9.302 9.302h-3.744l-.318 1.948c21.86 7.336 40.526 20.032 53.981 36.718 13.747 17.048 21.013 37.08 21.013 57.931 0 31.543-16.552 60.763-45.413 80.166l-.442.298v.532h320.025c2.845 0 5.151-2.306 5.151-5.151v-501.698c-.001-2.845-2.307-5.151-5.152-5.151z" fill="#fdf6ec"/><path d="m436.989 430.222h-47.557l-1 1.515v28.448l1 2.312h47.557c8.913 0 16.138-7.225 16.138-16.138-.001-8.912-7.226-16.137-16.138-16.137z" fill="#fd5426"/><path d="m149.038 246.362c7.93 0 12.887 8.585 8.922 15.453l-21.961 38.037h10.835c5.69 0 10.302 4.612 10.302 10.302v14.952c0 5.69-4.612 10.302-10.302 10.302h-3.744c7.528 2.526 14.689 5.686 21.381 9.426v-339.683c0-2.845 2.306-5.151 5.151-5.151h-44.274c-2.845 0-5.151 2.306-5.151 5.151v241.211z" fill="#fef1da"/><g><path d="m149.038 246.362h-64.397c-7.93 0-12.887 8.585-8.922 15.453l22.538 39.036h37.165l22.538-39.036c3.965-6.868-.992-15.453-8.922-15.453z" fill="#fed402"/><path d="m128.971 300.852-22.538-39.036c-3.965-6.868.991-15.453 8.922-15.453h-30.714c-7.93 0-12.887 8.585-8.922 15.453l22.538 39.036z" fill="#fac600"/><path d="m140.034 334.407h-46.389c-45.884 14.142-78.732 52.047-78.732 96.596 0 31.261 16.176 59.251 41.679 78.056 2.623 1.934 5.817 2.941 9.076 2.941h107.242c27.9-18.758 45.855-48.062 45.855-80.996 0-44.549-32.847-82.454-78.731-96.597z" fill="#fed402"/><path d="m58.205 431.004c0-44.569 32.887-82.469 78.803-96.596h-43.363c-45.884 14.142-78.731 52.047-78.731 96.596 0 31.261 16.176 59.251 41.679 78.056 2.623 1.934 5.817 2.941 9.076 2.941h43.292c-3.259 0-6.453-1.006-9.076-2.941-25.503-18.806-41.68-46.795-41.68-78.056z" fill="#fac600"/><path d="m125.698 412.855h-17.717c-4.704 0-8.53-3.826-8.53-8.53s3.827-8.53 8.53-8.53h31.217c4.142 0 7.5-3.357 7.5-7.5s-3.358-7.5-7.5-7.5h-14.858v-8.952c0-4.143-3.358-7.5-7.5-7.5s-7.5 3.357-7.5 7.5v8.952h-1.358c-12.975 0-23.53 10.556-23.53 23.53s10.556 23.53 23.53 23.53h17.717c4.704 0 8.53 3.826 8.53 8.53s-3.827 8.53-8.53 8.53h-31.217c-4.142 0-7.5 3.357-7.5 7.5s3.358 7.5 7.5 7.5h14.857v8.952c0 4.143 3.358 7.5 7.5 7.5s7.5-3.357 7.5-7.5v-8.952h1.359c12.975 0 23.53-10.556 23.53-23.53s-10.555-23.53-23.53-23.53z" fill="#0ed290"/><g><path d="m146.834 335.407h-59.989c-5.69 0-10.302-4.612-10.302-10.302v-14.952c0-5.69 4.612-10.302 10.302-10.302h59.989c5.69 0 10.302 4.612 10.302 10.302v14.952c0 5.69-4.612 10.302-10.302 10.302z" fill="#05e39c"/></g><g><path d="m111.536 325.106v-14.952c0-5.69 4.612-10.302 10.302-10.302h-34.993c-5.69 0-10.302 4.612-10.302 10.302v14.952c0 5.69 4.612 10.302 10.302 10.302h34.993c-5.69-.001-10.302-4.613-10.302-10.302z" fill="#0ed290"/></g></g><g><g><path d="m184.589 210.959v-55.725c0-1.707-1.384-3.091-3.091-3.091h-19.573c-1.707 0-3.091 1.384-3.091 3.091v55.725z" fill="#fd5426"/><path d="m172.336 152.143h-10.411c-1.707 0-3.091 1.384-3.091 3.091v55.725h10.411v-55.725c0-1.707 1.384-3.091 3.091-3.091z" fill="#ef4424"/><path d="m239.361 210.959v-81.737c0-1.707-1.384-3.091-3.091-3.091h-19.573c-1.707 0-3.091 1.384-3.091 3.091v81.737z" fill="#fed402"/><path d="m228.091 126.132h-11.393c-1.707 0-3.091 1.384-3.091 3.091v81.737h11.393v-81.737c0-1.708 1.384-3.091 3.091-3.091z" fill="#fac600"/><path d="m294.133 210.959v-107.189c0-1.707-1.384-3.091-3.091-3.091h-19.573c-1.707 0-3.091 1.384-3.091 3.091v107.189z" fill="#01d0fb"/><path d="m282.091 100.68h-10.621c-1.707 0-3.091 1.384-3.091 3.091v107.189h10.621v-107.19c0-1.707 1.384-3.09 3.091-3.09z" fill="#01c0fa"/><path d="m348.905 210.959v-129.646c0-1.707-1.384-3.091-3.091-3.091h-19.573c-1.707 0-3.091 1.384-3.091 3.091v129.646z" fill="#05e39c"/><path d="m337.336 78.222h-11.095c-1.707 0-3.091 1.384-3.091 3.091v129.646h11.095v-129.646c0-1.707 1.384-3.091 3.091-3.091z" fill="#0ed290"/><path d="m403.677 210.959v-102.697c0-1.707-1.384-3.091-3.091-3.091h-19.573c-1.707 0-3.091 1.384-3.091 3.091v102.697z" fill="#01d0fb"/><path d="m392.091 105.171h-11.077c-1.707 0-3.091 1.384-3.091 3.091v102.697h11.077v-102.697c0-1.707 1.384-3.091 3.091-3.091z" fill="#01c0fa"/><path d="m458.449 210.959v-71.581c0-1.707-1.384-3.091-3.091-3.091h-19.573c-1.707 0-3.091 1.384-3.091 3.091v71.581z" fill="#fed402"/><path d="m446.336 136.287h-10.551c-1.707 0-3.091 1.384-3.091 3.091v71.581h10.551v-71.581c0-1.707 1.384-3.091 3.091-3.091z" fill="#fac600"/></g><g><path d="m459.5 224.959h-301.5c-4.142 0-7.5-3.357-7.5-7.5s3.358-7.5 7.5-7.5h301.5c4.142 0 7.5 3.357 7.5 7.5s-3.358 7.5-7.5 7.5z" fill="#8ebac5"/></g></g><g><g><g><path d="m387.668 324.433h54.411c.006-.344.026-.684.026-1.03 0-29.781-24.229-54.01-54.01-54.01-15.273 0-29.075 6.383-38.908 16.608z" fill="#fd5426"/></g><g><path d="m367.564 304.355c9.413-15.89 26.726-26.573 46.495-26.573 1.018 0 2.028.034 3.032.09-8.384-5.359-18.33-8.48-28.997-8.48-15.273 0-29.075 6.383-38.908 16.608z" fill="#ef4424"/></g><g><path d="m388.094 323.403h61.953c1.709 0 3.086 1.427 3.003 3.134-1.658 34.245-30.331 61.899-64.957 61.899-35.676 0-65.032-29.357-65.032-65.032 0-16.174 6.034-31.742 16.846-43.672 1.152-1.271 3.138-1.317 4.352-.105z" fill="#01d0fb"/></g><g><path d="m349.485 323.403c0-10.846 2.718-21.417 7.766-30.804l-12.991-12.974c-1.214-1.212-3.2-1.166-4.352.105-10.812 11.93-16.846 27.499-16.846 43.672 0 35.676 29.357 65.032 65.032 65.032 4.521 0 8.94-.476 13.211-1.372-29.432-6.174-51.82-32.505-51.82-63.659z" fill="#01c0fa"/></g></g><g><g><path d="m295.802 286.458h-86.518c-4.142 0-7.5-3.357-7.5-7.5s3.358-7.5 7.5-7.5h86.518c4.142 0 7.5 3.357 7.5 7.5s-3.358 7.5-7.5 7.5z" fill="#d8aa5e"/></g><g><path d="m295.802 316.088h-86.518c-4.142 0-7.5-3.357-7.5-7.5s3.358-7.5 7.5-7.5h86.518c4.142 0 7.5 3.357 7.5 7.5s-3.358 7.5-7.5 7.5z" fill="#d8aa5e"/></g><g><path d="m295.802 345.718h-74.667c-4.142 0-7.5-3.357-7.5-7.5s3.358-7.5 7.5-7.5h74.667c4.142 0 7.5 3.357 7.5 7.5s-3.358 7.5-7.5 7.5z" fill="#d8aa5e"/></g><g><path d="m295.802 375.348h-50.963c-4.142 0-7.5-3.357-7.5-7.5s3.358-7.5 7.5-7.5h50.963c4.142 0 7.5 3.357 7.5 7.5s-3.358 7.5-7.5 7.5z" fill="#d8aa5e"/></g></g></g><g><path d="m246.025 45.426h-86.761c-4.142 0-7.5-3.357-7.5-7.5s3.358-7.5 7.5-7.5h86.761c4.142 0 7.5 3.357 7.5 7.5s-3.358 7.5-7.5 7.5z" fill="#d8aa5e"/></g><g><g><path d="m458.02 45.426h-47.649c-4.142 0-7.5-3.357-7.5-7.5s3.358-7.5 7.5-7.5h47.649c4.142 0 7.5 3.357 7.5 7.5s-3.358 7.5-7.5 7.5z" fill="#d8aa5e"/></g><g><path d="m458.02 72.686h-47.649c-4.142 0-7.5-3.357-7.5-7.5s3.358-7.5 7.5-7.5h47.649c4.142 0 7.5 3.357 7.5 7.5s-3.358 7.5-7.5 7.5z" fill="#d8aa5e"/></g></g><g><g><path d="m269.304 430.222c-8.913 0-16.138 7.225-16.138 16.138s7.225 16.138 16.138 16.138h120.128v-32.276z" fill="#01d0fb"/></g><g><path d="m296.925 446.36c0-8.913 7.225-16.138 16.138-16.138h-43.759c-8.913 0-16.138 7.225-16.138 16.138s7.225 16.138 16.138 16.138h43.759c-8.913 0-16.138-7.225-16.138-16.138z" fill="#01c0fa"/></g></g></g></svg>