<svg id="Layer_1" enable-background="new 0 0 128 128" height="512" viewBox="0 0 128 128" width="512" xmlns="http://www.w3.org/2000/svg"><path d="m119.837 62.952v-26.955c0-3.209-2.61-5.819-5.819-5.819h-37.019v-.621c0-7.89-6.396-14.286-14.286-14.286h-5.242c-7.89 0-14.286 6.396-14.286 14.286v.621h-26.203c-3.209 0-5.819 2.61-5.819 5.819v10.863c-3.159.308-5.638 2.979-5.638 6.218v12.458c0 3.239 2.478 5.91 5.638 6.219v20.082c0 3.209 2.61 5.819 5.819 5.819h40.105v10.069h-6.015c-4.414 0-8.005 3.591-8.005 8.004 0 .552.447 1 1 1h42.863c.553 0 1-.448 1-1 0-4.414-3.591-8.004-8.005-8.004h-6.015v-10.069h40.105c3.209 0 5.819-2.61 5.819-5.819v-3.99c3.159-.308 5.638-2.979 5.638-6.218v-12.459c.003-3.239-2.476-5.91-5.635-6.218z" fill="#e6e7e8"/><path d="m54.088 92.656h14.825v12.069h-14.825z" fill="#6dc9f7"/><path d="m110.018 92.656h-97.036c-2.662 0-4.819-2.158-4.819-4.819v-55.84c0-2.662 2.158-4.819 4.819-4.819h97.035c2.662 0 4.819 2.158 4.819 4.819v55.839c.001 2.662-2.157 4.82-4.818 4.82z" fill="#6dc9f7"/><path d="m11.163 87.837v-55.84c0-2.662 2.158-4.819 4.819-4.819h-3c-2.662 0-4.819 2.158-4.819 4.819v55.839c0 2.662 2.158 4.819 4.819 4.819h3c-2.661.001-4.819-2.157-4.819-4.818z" fill="#fff"/><path d="m104.848 81.893h-86.696c-1.596 0-2.889-1.293-2.889-2.889v-43.123c0-1.596 1.293-2.889 2.889-2.889h86.696c1.596 0 2.889 1.293 2.889 2.889v43.123c0 1.596-1.293 2.889-2.889 2.889z" fill="#d4fbff"/><circle cx="61.5" cy="86.681" fill="#0089ef" r="2.5"/><path d="m82.932 111.73h-42.863c0-3.868 3.136-7.004 7.004-7.004h28.854c3.869-.001 7.005 3.135 7.005 7.004z" fill="#6dc9f7"/><path d="m7.775 43.829h16.977c2.899 0 5.249 2.35 5.249 5.249v12.458c0 2.899-2.35 5.249-5.249 5.249h-2.055v4.27l-5.894-4.27h-9.028c-2.899 0-5.249-2.35-5.249-5.249v-12.458c-.001-2.899 2.349-5.249 5.249-5.249z" fill="#ffd7e5"/><path d="m115.225 59.921h-16.976c-2.899 0-5.249 2.35-5.249 5.249v12.458c0 2.899 2.35 5.249 5.249 5.249h2.055v4.27l5.894-4.27h9.027c2.899 0 5.249-2.35 5.249-5.249v-12.458c.001-2.899-2.349-5.249-5.249-5.249z" fill="#ffd7e5"/><path d="m59.929 49.791h-.634c-1.029.242-2.099.372-3.201.372s-2.179-.13-3.209-.372h-.631c-10.057 0-18.209 8.153-18.209 18.209v13.893h44.093v-13.892c0-10.057-8.152-18.21-18.209-18.21z" fill="#0089ef"/><path d="m47.774 50.354 2.038 10.399.764-.748 4.042-3.953-3.594-6.206c-.056.005-.112.002-.167.008-.057-.008-.106 0-.163.008-.984.073-1.952.236-2.879.48-.013.004-.027.009-.041.012z" fill="#ffd7e5"/><path d="m57.589 56.052 4.075 3.986.732.716 2.036-10.382c-.805-.21-1.624-.377-2.471-.46-.049-.016-.09-.016-.138-.024-.214-.022-.432-.019-.647-.033z" fill="#ffd7e5"/><path d="m61.635 49.877c-.033-.003-.068-.002-.101-.005.034.001.067.003.101.005z" fill="#ffd7e5"/><path d="m57.589 56.052.05-.087-.059.087h-2.96l-4.043 3.953-.028.028v21.86h11.086v-21.883z" fill="#ffd7e5"/><path d="m59.323 49.789c0 .008-.008.008-.016 0-1.033.244-2.107.374-3.213.374s-2.188-.13-3.221-.374c-.008.008-.008.008-.008 0-.775-.18-1.526-.425-2.246-.726.001.031.002.053.004.088l3.997 6.901h2.961l.059-.087 3.922-6.779c.002-.053.004-.089.006-.131-.721.302-1.469.553-2.245.734z" fill="#fff"/><path d="m59.146 58.557-1.57 4.084h-2.968l-1.57-4.084 1.57-2.505h2.968z" fill="#fa759e"/><path d="m59.146 81.893h-6.108l1.57-19.252h2.968z" fill="#fa759e"/><path d="m59.314 26.824c-5.763-1.745-8.78-4.111-8.78-4.111s-1.274 2.472-3.524 3.805-5.083 1.75-5.083 1.75v4.782s-.001 0-.001-.001v2.953c0 6.71 4.669 12.331 10.94 13.787 0 .008 0 .008.008 0 1.033.244 2.115.374 3.221.374s2.18-.13 3.213-.374c.008.008.016.008.016 0 2.619-.61 4.953-1.944 6.784-3.774 2.562-2.562 4.148-6.1 4.148-10.013v-7.956c-.024.002-5.899.305-10.942-1.222z" fill="#fff"/><path d="m71.09 32.807c-.296 0-.577.088-.833.243v2.951c0 .808-.071 1.599-.201 2.37.307.246.656.397 1.034.397 1.166 0 2.111-1.334 2.111-2.98 0-1.647-.945-2.981-2.111-2.981z" fill="#fff"/><path d="m41.927 36.001v-2.951c-.256-.155-.537-.243-.833-.243-1.166 0-2.111 1.334-2.111 2.98s.945 2.98 2.111 2.98c.378 0 .728-.152 1.034-.397-.13-.771-.201-1.561-.201-2.369z" fill="#fff"/><circle cx="78.138" cy="76.972" fill="#fff" r="4.921"/><g fill="#3a2c60"><path d="m93.144 91.656h-7.082c-.553 0-1 .448-1 1s.447 1 1 1h7.082c.553 0 1-.448 1-1s-.448-1-1-1z"/><path d="m9.428 53.031h13.671c.553 0 1-.448 1-1s-.447-1-1-1h-13.671c-.553 0-1 .448-1 1s.447 1 1 1z"/><path d="m9.428 59.617h13.671c.553 0 1-.448 1-1s-.447-1-1-1h-13.671c-.553 0-1 .448-1 1s.447 1 1 1z"/><path d="m115.837 58.952v-26.955c0-3.208-2.61-5.819-5.819-5.819h-37.019v-.621c0-7.89-6.396-14.286-14.286-14.286h-5.242c-7.89 0-14.286 6.396-14.286 14.286v.621h-26.203c-3.209 0-5.819 2.61-5.819 5.819v10.863c-3.159.308-5.638 2.979-5.638 6.218v12.458c0 3.239 2.478 5.91 5.638 6.218v20.082c0 3.209 2.61 5.819 5.819 5.819h40.105v10.069h-6.015c-4.414 0-8.005 3.591-8.005 8.004 0 .552.447 1 1 1h42.863c.553 0 1-.448 1-1 0-4.414-3.591-8.004-8.005-8.004h-6.015v-10.068h11.694c.553 0 1-.448 1-1s-.447-1-1-1h-68.622c-2.106 0-3.819-1.713-3.819-3.819v-20.052h7.314l5.632 4.08c.174.126.38.19.587.19.155 0 .312-.036.455-.109.334-.171.545-.515.545-.891v-3.271h1.056c3.445 0 6.249-2.803 6.249-6.249v-12.457c0-3.446-2.804-6.249-6.249-6.249h-15.589v-10.832c0-2.106 1.713-3.819 3.819-3.819h26.202v4.466c-.731.722-1.202 1.845-1.202 3.144 0 2.232 1.366 3.98 3.111 3.98.099 0 .195-.028.293-.04 1.002 4.005 3.594 7.399 7.162 9.428-3.954.776-7.466 2.777-10.15 5.579-.06.047-.111.101-.16.161-3.214 3.435-5.192 8.04-5.192 13.104v13.893c0 .552.447 1 1 1h44.093c3.265 0 5.921-2.656 5.921-5.921 0-2.452-1.498-4.56-3.627-5.458l9.43-20.643c.229-.502.009-1.096-.493-1.325-.504-.23-1.097-.008-1.325.494l-8.906 19.495v-1.535c0-5.064-1.978-9.669-5.192-13.104-.049-.061-.1-.115-.16-.162-2.686-2.804-6.201-4.805-10.158-5.58 1.157-.663 2.231-1.477 3.187-2.433 1.962-1.963 3.303-4.374 3.964-6.997.104.014.207.043.312.043 1.744 0 3.11-1.748 3.11-3.98 0-1.299-.471-2.421-1.202-3.143v-4.466h37.018c2.106 0 3.819 1.713 3.819 3.819v26.924h-15.588c-3.446 0-6.25 2.804-6.25 6.25v12.458c0 3.446 2.804 6.249 6.25 6.249h1.055v3.271c0 .376.211.72.545.891.144.073.3.109.455.109.207 0 .413-.064.587-.19l5.632-4.08h7.314v3.959c0 2.106-1.713 3.819-3.819 3.819h-11.898c-.553 0-1 .448-1 1s.447 1 1 1h11.897c3.209 0 5.819-2.61 5.819-5.819v-3.99c3.159-.308 5.638-2.979 5.638-6.218v-12.46c.001-3.239-2.478-5.91-5.637-6.218zm-33.988 51.777h-40.698c.478-2.836 2.951-5.004 5.922-5.004h7.015 14.824 7.015c2.97 0 5.444 2.168 5.922 5.004zm-13.937-17.073v10.069h-12.824v-10.069zm-38.911-44.578v12.458c0 2.343-1.906 4.249-4.249 4.249h-2.056c-.553 0-1 .448-1 1v2.311l-4.308-3.121c-.171-.124-.376-.19-.587-.19h-9.027c-2.343 0-4.249-1.906-4.249-4.249v-12.458c0-2.343 1.906-4.249 4.249-4.249h16.978c2.343 0 4.249 1.906 4.249 4.249zm38.739-17.23c-.041-.076-.075-.156-.135-.22-.189-.201-.453-.315-.729-.315h-8.536c-.275 0-.539.114-.729.315-.06.064-.094.144-.135.22h-2.605c-.041-.076-.075-.156-.135-.22-.189-.201-.453-.315-.729-.315h-8.536c-.275 0-.539.114-.729.315-.06.064-.094.144-.135.22h-1.682v-3.778c1.027-.238 2.67-.714 4.084-1.551 2.25-1.333 3.524-3.805 3.524-3.805s3.017 2.365 8.78 4.111c3.787 1.147 8.046 1.261 9.941 1.246v3.778h-1.514zm-1.928 1.465-.154 2.521c-.034.572-.512 1.021-1.086 1.021h-3.93c-.574 0-1.051-.449-1.086-1.022l-.154-2.52zm-12.867 0-.154 2.52c-.035.573-.513 1.022-1.087 1.022h-3.929c-.574 0-1.052-.449-1.087-1.022l-.154-2.52zm-11.914 4.451c-.508-.063-1.049-.888-1.049-1.976 0-1.013.469-1.798.943-1.953v2.167c0 .56.041 1.111.099 1.657.002.035.003.07.007.105zm25.471 43.129h-3.825v-19.182c.005-.002.01-.001.016-.002.351-.109.613-.402.685-.763l1.823-9.294c2.349.757 4.474 2.003 6.262 3.621-3.053 1.854-4.96 5.176-4.96 8.824v16.796zm-16.01-29.971 2.851 4.922-2.916 2.851-1.478-7.542c.508-.101 1.021-.178 1.543-.231zm3.658 7.743.984-1.571h1.914l.985 1.571-1.145 2.976h-1.596zm-2.559 1.807.808-.79 1.193 3.104-1.472 18.065h-.529zm3.938 3.169h1.125l1.404 17.21h-3.932zm3.063-.855 1.2-3.121.801.783v20.403h-.528zm-9.761-1.84c.07.358.33.647.676.759v19.189h-3.824v-16.798c0-3.647-1.907-6.969-4.96-8.824 1.795-1.623 3.928-2.872 6.286-3.628zm12.949-2.252-2.915-2.851 2.846-4.919c.523.054 1.038.133 1.547.233zm-4.743-3.684h-1.864l-2.45-4.229c.011.002.022.006.033.007 1.092.25 2.215.375 3.34.375 1.119 0 2.239-.126 3.33-.375.021-.002.042-.01.063-.013zm-21.991 12.99c0-4.3 1.6-8.219 4.217-11.234 2.699 1.438 4.42 4.23 4.42 7.33v16.797h-8.637zm47.014 8.972c0 2.162-1.759 3.921-3.921 3.921s-3.922-1.759-3.922-3.921 1.76-3.921 3.922-3.921 3.921 1.759 3.921 3.921zm-4.921-5.831c-2.79.477-4.922 2.907-4.922 5.83 0 1.505.569 2.876 1.497 3.921h-5.211v-16.796c0-3.1 1.72-5.891 4.419-7.33 2.617 3.015 4.217 6.934 4.217 11.234zm-11.739-25.833c-1.723 1.723-3.878 2.929-6.237 3.491-.029.004-.058.01-.087.017-1.954.462-4.025.459-5.974 0-.02-.005-.04-.009-.061-.012-5.958-1.407-10.116-6.664-10.116-12.801v-2.154h1.638l.129 2.106c.1 1.626 1.453 2.9 3.083 2.9h3.929c1.63 0 2.983-1.274 3.083-2.9l.129-2.106h2.516l.129 2.106c.1 1.626 1.453 2.9 3.082 2.9h3.93c1.63 0 2.984-1.274 3.082-2.9l.129-2.106h1.471v2.154c0 3.514-1.369 6.819-3.855 9.305zm5.752-7.544c.004-.032.005-.065.006-.097.06-.549.097-1.104.097-1.664v-1.932h.002v-.236c.475.153.944.938.944 1.953 0 1.088-.541 1.913-1.049 1.976zm48.323 39.864c0 2.343-1.906 4.249-4.249 4.249h-9.027c-.211 0-.416.066-.587.19l-4.308 3.121v-2.311c0-.552-.447-1-1-1h-2.055c-2.344 0-4.25-1.906-4.25-4.249v-12.458c0-2.343 1.906-4.25 4.25-4.25h16.977c2.343 0 4.249 1.906 4.249 4.25z"/><path d="m113.572 67.123h-13.671c-.553 0-1 .448-1 1s.447 1 1 1h13.671c.553 0 1-.448 1-1s-.447-1-1-1z"/><path d="m113.572 73.708h-13.671c-.553 0-1 .448-1 1s.447 1 1 1h13.671c.553 0 1-.448 1-1s-.447-1-1-1z"/><path d="m49.843 36.248c.782 0 1.417-.634 1.417-1.417 0-.782-.634-1.417-1.417-1.417-.782 0-1.417.634-1.417 1.417s.634 1.417 1.417 1.417z"/><circle cx="62.341" cy="34.831" r="1.417"/><path d="m56.138 42.136c1.439 0 2.611-1.171 2.611-2.611 0-.552-.447-1-1-1s-1 .448-1 1c0 .337-.274.611-.611.611s-.61-.274-.61-.611c0-.552-.447-1-1-1s-1 .448-1 1c-.001 1.44 1.17 2.611 2.61 2.611z"/><path d="m64.363 28.969-2.774-.483c-.554-.09-1.062.27-1.157.813-.095.544.27 1.062.813 1.157l2.774.483c.059.01.116.015.173.015.478 0 .899-.342.984-.828.095-.544-.269-1.062-.813-1.157z"/><path d="m50.688 28.486-2.774.483c-.544.095-.908.613-.813 1.157.085.486.507.828.984.828.057 0 .114-.005.173-.015l2.774-.483c.544-.095.908-.613.813-1.157-.095-.543-.606-.903-1.157-.813z"/><path d="m58.479 42.784c-.008.011-.841 1.054-2.342 1.054-1.511 0-2.288-.984-2.334-1.043-.324-.44-.943-.54-1.39-.218-.448.323-.549.949-.226 1.396.055.076 1.376 1.865 3.949 1.865 2.508 0 3.879-1.771 3.936-1.846.334-.44.247-1.067-.193-1.401-.441-.336-1.067-.247-1.4.193z"/></g><path d="m102.967 45.346h-20.463c-1.275 0-2.308-1.033-2.308-2.308v-5.793c0-1.275 1.033-2.308 2.308-2.308h20.463c1.275 0 2.308 1.033 2.308 2.308v5.793c.001 1.274-1.033 2.308-2.308 2.308z" fill="#fa759e"/><path d="m85.23 37.916v4.242h2.394c.191 0 .337.046.439.139s.153.209.153.35c0 .143-.051.259-.151.348s-.248.133-.441.133h-2.851c-.257 0-.442-.057-.555-.171s-.169-.298-.169-.553v-4.489c0-.239.054-.417.161-.537s.248-.179.423-.179c.178 0 .322.059.432.177.111.119.165.299.165.54z" fill="#fff"/><path d="m89.039 42.508v-4.592c0-.239.055-.417.163-.537s.249-.179.422-.179c.178 0 .321.059.431.177s.165.297.165.539v4.592c0 .241-.055.421-.165.541-.109.119-.253.179-.431.179-.17 0-.31-.061-.42-.181-.109-.121-.165-.301-.165-.539z" fill="#fff"/><path d="m92.403 37.975 1.32 3.908 1.323-3.936c.069-.207.121-.351.155-.431.034-.081.092-.154.171-.219.08-.065.188-.098.326-.098.101 0 .194.025.28.076s.153.117.203.201c.049.083.073.168.073.252 0 .059-.008.122-.023.189-.017.067-.036.134-.06.199s-.048.132-.072.201l-1.411 3.809c-.051.146-.101.284-.151.416-.05.131-.108.247-.175.346-.066.1-.154.181-.265.245-.109.063-.244.096-.403.096s-.294-.031-.403-.094c-.11-.062-.199-.145-.267-.247s-.127-.218-.177-.348c-.051-.13-.101-.268-.151-.414l-1.388-3.777c-.023-.069-.048-.137-.073-.203s-.047-.138-.063-.214c-.018-.077-.026-.142-.026-.195 0-.135.055-.259.163-.37.109-.111.245-.167.41-.167.201 0 .344.062.427.185.084.123.169.32.257.59z" fill="#fff"/><path d="m100.982 38.21h-2.659v1.431h2.449c.18 0 .314.041.403.121.089.081.133.188.133.32s-.044.24-.131.324c-.088.083-.223.125-.405.125h-2.449v1.658h2.751c.186 0 .325.043.419.129.095.086.142.201.142.344 0 .138-.047.25-.142.336-.094.086-.233.129-.419.129h-3.209c-.257 0-.441-.057-.555-.171-.112-.114-.169-.298-.169-.553v-4.381c0-.169.025-.308.076-.416.05-.107.129-.186.236-.234.107-.049.244-.074.411-.074h3.117c.188 0 .328.042.42.125.091.083.137.193.137.328 0 .138-.046.249-.137.332-.09.085-.23.127-.419.127z" fill="#fff"/></svg>